<svg width="44" height="44" viewBox="0 0 44 44" fill="none" xmlns="http://www.w3.org/2000/svg">
<path d="M30.6 21.6C30.6 21.6 30.6 21.492 30.6 21.438C30.5918 21.2652 30.5553 21.095 30.492 20.934C30.4439 20.8105 30.3771 20.6952 30.294 20.592C30.2463 20.5098 30.1921 20.4316 30.132 20.358L24.984 14.958C24.8209 14.7866 24.6256 14.6491 24.4094 14.5531C24.1931 14.4572 23.9601 14.4048 23.7235 14.399C23.2459 14.3872 22.7831 14.5656 22.437 14.895C22.0909 15.2244 21.8898 15.6778 21.878 16.1555C21.8662 16.6331 22.0446 17.0959 22.374 17.442L24.588 19.8H14.4C13.9226 19.8 13.4648 19.9896 13.1272 20.3272C12.7896 20.6648 12.6 21.1226 12.6 21.6C12.6 22.0774 12.7896 22.5352 13.1272 22.8728C13.4648 23.2104 13.9226 23.4 14.4 23.4H24.462L22.122 25.722C21.9533 25.8893 21.8194 26.0884 21.728 26.3078C21.6366 26.5271 21.5896 26.7624 21.5896 27C21.5896 27.2376 21.6366 27.4729 21.728 27.6922C21.8194 27.9116 21.9533 28.1107 22.122 28.278C22.2893 28.4467 22.4884 28.5806 22.7078 28.672C22.9271 28.7634 23.1624 28.8104 23.4 28.8104C23.6376 28.8104 23.8729 28.7634 24.0922 28.672C24.3116 28.5806 24.5107 28.4467 24.678 28.278L30.078 22.878C30.2399 22.7121 30.3683 22.5165 30.456 22.302C30.5506 22.08 30.5995 21.8413 30.6 21.6V21.6Z" fill="#901C1C"/>
<path d="M21.6 3.6C18.0399 3.6 14.5598 4.65568 11.5997 6.63355C8.63965 8.61141 6.33255 11.4226 4.97017 14.7117C3.60779 18.0008 3.25133 21.62 3.94587 25.1116C4.6404 28.6033 6.35473 31.8106 8.87208 34.3279C11.3894 36.8453 14.5967 38.5596 18.0884 39.2541C21.58 39.9487 25.1992 39.5922 28.4883 38.2298C31.7774 36.8675 34.5886 34.5603 36.5665 31.6003C38.5443 28.6402 39.6 25.1601 39.6 21.6C39.6 19.2362 39.1344 16.8956 38.2298 14.7117C37.3252 12.5278 35.9994 10.5435 34.3279 8.87208C32.6565 7.20062 30.6722 5.87475 28.4883 4.97017C26.3044 4.06558 23.9638 3.6 21.6 3.6V3.6ZM21.6 36C18.752 36 15.9679 35.1555 13.5998 33.5732C11.2317 31.9909 9.38604 29.7419 8.29614 27.1106C7.20623 24.4794 6.92107 21.584 7.47669 18.7907C8.03232 15.9974 9.40379 13.4315 11.4177 11.4177C13.4315 9.40379 15.9974 8.03232 18.7907 7.47669C21.584 6.92107 24.4794 7.20623 27.1106 8.29614C29.7419 9.38604 31.9909 11.2317 33.5732 13.5998C35.1555 15.9679 36 18.7519 36 21.6C36 25.4191 34.4829 29.0818 31.7823 31.7823C29.0818 34.4829 25.4191 36 21.6 36V36Z" fill="#901C1C"/>
</svg>
